<?xml version="1.0" encoding="UTF-8" standalone="no"?>
<!-- Created with Inkscape (http://www.inkscape.org/) -->

<svg
   xmlns:dc="http://purl.org/dc/elements/1.1/"
   xmlns:cc="http://creativecommons.org/ns#"
   xmlns:rdf="http://www.w3.org/1999/02/22-rdf-syntax-ns#"
   xmlns:svg="http://www.w3.org/2000/svg"
   xmlns="http://www.w3.org/2000/svg"
   xmlns:sodipodi="http://sodipodi.sourceforge.net/DTD/sodipodi-0.dtd"
   xmlns:inkscape="http://www.inkscape.org/namespaces/inkscape"
   width="475.76813"
   height="370.41849"
   id="svg2"
   version="1.1"
   inkscape:version="0.48.4 r9939"
   sodipodi:docname="radial-distortion.svg">
  <sodipodi:namedview
     id="base"
     pagecolor="#ffffff"
     bordercolor="#666666"
     borderopacity="1.0"
     inkscape:pageopacity="0.0"
     inkscape:pageshadow="2"
     inkscape:zoom="0.98994949"
     inkscape:cx="210.28914"
     inkscape:cy="204.05795"
     inkscape:document-units="px"
     inkscape:current-layer="layer1"
     showgrid="false"
     inkscape:window-width="1280"
     inkscape:window-height="1000"
     inkscape:window-x="0"
     inkscape:window-y="24"
     inkscape:window-maximized="1"
     fit-margin-top="0"
     fit-margin-left="0"
     fit-margin-right="0"
     fit-margin-bottom="0">
    <inkscape:grid
       type="xygrid"
       id="grid2985"
       empspacing="5"
       visible="true"
       enabled="true"
       snapvisiblegridlinesonly="true"
       originx="-47.123606px"
       originy="-124.797px" />
  </sodipodi:namedview>
  <defs
     id="defs4">
    <marker
       style="overflow:visible"
       id="Arrow2Lend"
       refX="0"
       refY="0"
       orient="auto"
       inkscape:stockid="Arrow2Lend">
      <path
         transform="matrix(-1.1,0,0,-1.1,-1.1,0)"
         d="M 8.7185878,4.0337352 -2.2072895,0.01601326 8.7185884,-4.0017078 c -1.7454984,2.3720609 -1.7354408,5.6174519 -6e-7,8.035443 z"
         style="fill-rule:evenodd;stroke-width:0.625;stroke-linejoin:round"
         id="path3794"
         inkscape:connector-curvature="0" />
    </marker>
    <marker
       inkscape:stockid="Arrow2Mend"
       orient="auto"
       refY="0"
       refX="0"
       id="Arrow2Mend"
       style="overflow:visible">
      <path
         id="path3800"
         style="fill-rule:evenodd;stroke-width:0.625;stroke-linejoin:round"
         d="M 8.7185878,4.0337352 -2.2072895,0.01601326 8.7185884,-4.0017078 c -1.7454984,2.3720609 -1.7354408,5.6174519 -6e-7,8.035443 z"
         transform="scale(-0.6,-0.6)"
         inkscape:connector-curvature="0" />
    </marker>
    <marker
       inkscape:stockid="Arrow2Mstart"
       orient="auto"
       refY="0"
       refX="0"
       id="Arrow2Mstart"
       style="overflow:visible">
      <path
         id="path3797"
         style="fill-rule:evenodd;stroke-width:0.625;stroke-linejoin:round"
         d="M 8.7185878,4.0337352 -2.2072895,0.01601326 8.7185884,-4.0017078 c -1.7454984,2.3720609 -1.7354408,5.6174519 -6e-7,8.035443 z"
         transform="scale(0.6,0.6)"
         inkscape:connector-curvature="0" />
    </marker>
    <marker
       inkscape:stockid="Arrow2Send"
       orient="auto"
       refY="0"
       refX="0"
       id="Arrow2Send"
       style="overflow:visible">
      <path
         id="path3806"
         style="fill-rule:evenodd;stroke-width:0.625;stroke-linejoin:round"
         d="M 8.7185878,4.0337352 -2.2072895,0.01601326 8.7185884,-4.0017078 c -1.7454984,2.3720609 -1.7354408,5.6174519 -6e-7,8.035443 z"
         transform="matrix(-0.3,0,0,-0.3,0.69,0)"
         inkscape:connector-curvature="0" />
    </marker>
    <marker
       inkscape:stockid="Arrow2Mendk"
       orient="auto"
       refY="0"
       refX="0"
       id="Arrow2Mendk"
       style="overflow:visible">
      <path
         id="path4782"
         style="fill:#be0000;fill-rule:evenodd;stroke:#be0000;stroke-width:0.625;stroke-linejoin:round"
         d="M 8.7185878,4.0337352 -2.2072895,0.01601326 8.7185884,-4.0017078 c -1.7454984,2.3720609 -1.7354408,5.6174519 -6e-7,8.035443 z"
         transform="scale(-0.6,-0.6)"
         inkscape:connector-curvature="0" />
    </marker>
    <marker
       inkscape:stockid="Arrow2MendI"
       orient="auto"
       refY="0"
       refX="0"
       id="Arrow2MendI"
       style="overflow:visible">
      <path
         id="path5595"
         style="fill:#be0000;fill-rule:evenodd;stroke:#be0000;stroke-width:0.625;stroke-linejoin:round"
         d="M 8.7185878,4.0337352 -2.2072895,0.01601326 8.7185884,-4.0017078 c -1.7454984,2.3720609 -1.7354408,5.6174519 -6e-7,8.035443 z"
         transform="scale(-0.6,-0.6)"
         inkscape:connector-curvature="0" />
    </marker>
    <marker
       inkscape:stockid="Arrow2Mendt"
       orient="auto"
       refY="0"
       refX="0"
       id="Arrow2Mendt"
       style="overflow:visible">
      <path
         id="path5598"
         style="fill:#be0000;fill-rule:evenodd;stroke:#be0000;stroke-width:0.625;stroke-linejoin:round"
         d="M 8.7185878,4.0337352 -2.2072895,0.01601326 8.7185884,-4.0017078 c -1.7454984,2.3720609 -1.7354408,5.6174519 -6e-7,8.035443 z"
         transform="scale(-0.6,-0.6)"
         inkscape:connector-curvature="0" />
    </marker>
    <marker
       inkscape:stockid="Arrow2MendP"
       orient="auto"
       refY="0"
       refX="0"
       id="Arrow2MendP"
       style="overflow:visible">
      <path
         id="path5601"
         style="fill:#be0000;fill-rule:evenodd;stroke:#be0000;stroke-width:0.625;stroke-linejoin:round"
         d="M 8.7185878,4.0337352 -2.2072895,0.01601326 8.7185884,-4.0017078 c -1.7454984,2.3720609 -1.7354408,5.6174519 -6e-7,8.035443 z"
         transform="scale(-0.6,-0.6)"
         inkscape:connector-curvature="0" />
    </marker>
    <marker
       inkscape:stockid="Arrow2MendP"
       orient="auto"
       refY="0"
       refX="0"
       id="Arrow2MendP-3"
       style="overflow:visible">
      <path
         inkscape:connector-curvature="0"
         id="path5601-6"
         style="fill:#be0000;fill-rule:evenodd;stroke:#be0000;stroke-width:0.625;stroke-linejoin:round"
         d="M 8.7185878,4.0337352 -2.2072895,0.01601326 8.7185884,-4.0017078 c -1.7454984,2.3720609 -1.7354408,5.6174519 -6e-7,8.035443 z"
         transform="scale(-0.6,-0.6)" />
    </marker>
    <marker
       inkscape:stockid="Arrow2MendI"
       orient="auto"
       refY="0"
       refX="0"
       id="Arrow2MendI-7"
       style="overflow:visible">
      <path
         inkscape:connector-curvature="0"
         id="path5595-5"
         style="fill:#be0000;fill-rule:evenodd;stroke:#be0000;stroke-width:0.625;stroke-linejoin:round"
         d="M 8.7185878,4.0337352 -2.2072895,0.01601326 8.7185884,-4.0017078 c -1.7454984,2.3720609 -1.7354408,5.6174519 -6e-7,8.035443 z"
         transform="scale(-0.6,-0.6)" />
    </marker>
    <marker
       inkscape:stockid="Arrow2Mendt"
       orient="auto"
       refY="0"
       refX="0"
       id="Arrow2Mendt-3"
       style="overflow:visible">
      <path
         inkscape:connector-curvature="0"
         id="path5598-5"
         style="fill:#be0000;fill-rule:evenodd;stroke:#be0000;stroke-width:0.625;stroke-linejoin:round"
         d="M 8.7185878,4.0337352 -2.2072895,0.01601326 8.7185884,-4.0017078 c -1.7454984,2.3720609 -1.7354408,5.6174519 -6e-7,8.035443 z"
         transform="scale(-0.6,-0.6)" />
    </marker>
    <marker
       inkscape:stockid="Arrow2Mendk"
       orient="auto"
       refY="0"
       refX="0"
       id="Arrow2Mendk-6"
       style="overflow:visible">
      <path
         inkscape:connector-curvature="0"
         id="path4782-2"
         style="fill:#be0000;fill-rule:evenodd;stroke:#be0000;stroke-width:0.625;stroke-linejoin:round"
         d="M 8.7185878,4.0337352 -2.2072895,0.01601326 8.7185884,-4.0017078 c -1.7454984,2.3720609 -1.7354408,5.6174519 -6e-7,8.035443 z"
         transform="scale(-0.6,-0.6)" />
    </marker>
    <marker
       inkscape:stockid="Arrow2Sendp"
       orient="auto"
       refY="0"
       refX="0"
       id="Arrow2Sendp"
       style="overflow:visible">
      <path
         id="path6135"
         style="fill:#108c00;fill-rule:evenodd;stroke:#108c00;stroke-width:0.625;stroke-linejoin:round"
         d="M 8.7185878,4.0337352 -2.2072895,0.01601326 8.7185884,-4.0017078 c -1.7454984,2.3720609 -1.7354408,5.6174519 -6e-7,8.035443 z"
         transform="matrix(-0.3,0,0,-0.3,0.69,0)"
         inkscape:connector-curvature="0" />
    </marker>
    <marker
       inkscape:stockid="Arrow2Sendy"
       orient="auto"
       refY="0"
       refX="0"
       id="Arrow2Sendy"
       style="overflow:visible">
      <path
         id="path6138"
         style="fill:#108c00;fill-rule:evenodd;stroke:#108c00;stroke-width:0.625;stroke-linejoin:round"
         d="M 8.7185878,4.0337352 -2.2072895,0.01601326 8.7185884,-4.0017078 c -1.7454984,2.3720609 -1.7354408,5.6174519 -6e-7,8.035443 z"
         transform="matrix(-0.3,0,0,-0.3,0.69,0)"
         inkscape:connector-curvature="0" />
    </marker>
    <marker
       inkscape:stockid="Arrow2SendH"
       orient="auto"
       refY="0"
       refX="0"
       id="Arrow2SendH"
       style="overflow:visible">
      <path
         id="path6657"
         style="fill:#184bff;fill-rule:evenodd;stroke:#184bff;stroke-width:0.625;stroke-linejoin:round"
         d="M 8.7185878,4.0337352 -2.2072895,0.01601326 8.7185884,-4.0017078 c -1.7454984,2.3720609 -1.7354408,5.6174519 -6e-7,8.035443 z"
         transform="matrix(-0.3,0,0,-0.3,0.69,0)"
         inkscape:connector-curvature="0" />
    </marker>
    <marker
       inkscape:stockid="Arrow2SendJ"
       orient="auto"
       refY="0"
       refX="0"
       id="Arrow2SendJ"
       style="overflow:visible">
      <path
         id="path6660"
         style="fill:#184bff;fill-rule:evenodd;stroke:#184bff;stroke-width:0.625;stroke-linejoin:round"
         d="M 8.7185878,4.0337352 -2.2072895,0.01601326 8.7185884,-4.0017078 c -1.7454984,2.3720609 -1.7354408,5.6174519 -6e-7,8.035443 z"
         transform="matrix(-0.3,0,0,-0.3,0.69,0)"
         inkscape:connector-curvature="0" />
    </marker>
  </defs>
  <metadata
     id="metadata7">
    <rdf:RDF>
      <cc:Work
         rdf:about="">
        <dc:format>image/svg+xml</dc:format>
        <dc:type
           rdf:resource="http://purl.org/dc/dcmitype/StillImage" />
        <dc:title />
      </cc:Work>
    </rdf:RDF>
  </metadata>
  <g
     inkscape:label="Layer 1"
     inkscape:groupmode="layer"
     id="layer1"
     transform="translate(-47.123606,-557.1467)">
    <path
       style="fill:#5f5f5f;fill-opacity:1;stroke:#be0000;stroke-width:2;stroke-miterlimit:4;stroke-opacity:1;stroke-dasharray:none;marker-start:none;marker-end:url(#Arrow2Mendk)"
       d="m 280,110 80,0"
       id="path3767"
       inkscape:connector-curvature="0"
       transform="translate(0,452.36218)" />
    <path
       transform="translate(0,452.36218)"
       inkscape:connector-curvature="0"
       id="path4812"
       d="m 280,140 60,0"
       style="fill:#5f5f5f;fill-opacity:1;stroke:#be0000;stroke-width:2;stroke-linejoin:round;stroke-miterlimit:4;stroke-opacity:1;stroke-dasharray:none;stroke-dashoffset:0;marker-end:url(#Arrow2Mendt)" />
    <path
       style="fill:#5f5f5f;fill-opacity:1;stroke:#be0000;stroke-width:2;stroke-miterlimit:4;stroke-opacity:1;stroke-dasharray:none;marker-start:none;marker-end:url(#Arrow2Mendk)"
       d="m 280.0901,922.3497 -80,0"
       id="path3767-9"
       inkscape:connector-curvature="0" />
    <path
       inkscape:connector-curvature="0"
       id="path4812-1"
       d="m 280.0901,892.3497 -60,0"
       style="fill:#5f5f5f;fill-opacity:1;stroke:#be0000;stroke-width:2;stroke-linejoin:round;stroke-miterlimit:4;stroke-opacity:1;stroke-dasharray:none;stroke-dashoffset:0;marker-end:url(#Arrow2Mendt)" />
    <path
       inkscape:connector-curvature="0"
       id="path5196-2"
       d="m 280.0901,862.3497 -40,0"
       style="fill:#5f5f5f;fill-opacity:1;stroke:#be0000;stroke-width:2;stroke-linejoin:round;stroke-miterlimit:4;stroke-opacity:1;stroke-dasharray:none;stroke-dashoffset:0;marker-end:url(#Arrow2MendI)" />
    <path
       sodipodi:type="arc"
       style="fill:none;stroke:#5f5f5f;stroke-width:2;stroke-linejoin:round;stroke-miterlimit:4;stroke-opacity:1;stroke-dasharray:none;stroke-dashoffset:0"
       id="path2987"
       sodipodi:cx="280"
       sodipodi:cy="290"
       sodipodi:rx="180"
       sodipodi:ry="180"
       d="m 460,290 c 0,99.41125 -80.58875,180 -180,180 -99.41125,0 -180,-80.58875 -180,-180 0,-99.41125 80.58875,-180 180,-180 99.41125,0 180,80.58875 180,180 z"
       transform="translate(0,452.36218)" />
    <path
       transform="translate(0,452.36218)"
       inkscape:connector-curvature="0"
       id="path5196"
       d="m 280,170 40,0"
       style="fill:#5f5f5f;fill-opacity:1;stroke:#be0000;stroke-width:2;stroke-linejoin:round;stroke-miterlimit:4;stroke-opacity:1;stroke-dasharray:none;stroke-dashoffset:0;marker-end:url(#Arrow2MendI)" />
    <path
       inkscape:connector-curvature="0"
       id="path5388-7"
       d="m 280.0901,832.3497 -20,0"
       style="fill:#5f5f5f;fill-opacity:1;stroke:#be0000;stroke-width:2;stroke-linejoin:round;stroke-miterlimit:4;stroke-opacity:1;stroke-dasharray:none;stroke-dashoffset:0;marker-end:url(#Arrow2MendP)" />
    <path
       sodipodi:type="arc"
       style="fill:none;stroke:#5f5f5f;stroke-width:2;stroke-linejoin:round;stroke-miterlimit:4;stroke-opacity:1;stroke-dasharray:none;stroke-dashoffset:0"
       id="path2989"
       sodipodi:cx="280"
       sodipodi:cy="290"
       sodipodi:rx="150"
       sodipodi:ry="150"
       d="m 430,290 c 0,82.84271 -67.15729,150 -150,150 -82.84271,0 -150,-67.15729 -150,-150 0,-82.84271 67.15729,-150 150,-150 82.84271,0 150,67.15729 150,150 z"
       transform="translate(0,452.36218)" />
    <path
       transform="translate(0,452.36218)"
       inkscape:connector-curvature="0"
       id="path5388"
       d="m 280,200 20,0"
       style="fill:#5f5f5f;fill-opacity:1;stroke:#be0000;stroke-width:2;stroke-linejoin:round;stroke-miterlimit:4;stroke-opacity:1;stroke-dasharray:none;stroke-dashoffset:0;marker-end:url(#Arrow2MendP)" />
    <path
       sodipodi:type="arc"
       style="fill:none;stroke:#5f5f5f;stroke-width:2;stroke-linejoin:round;stroke-miterlimit:4;stroke-opacity:1;stroke-dasharray:none;stroke-dashoffset:0"
       id="path2991"
       sodipodi:cx="280"
       sodipodi:cy="290"
       sodipodi:rx="120"
       sodipodi:ry="120"
       d="m 400,290 c 0,66.27417 -53.72583,120 -120,120 -66.27417,0 -120,-53.72583 -120,-120 0,-66.27417 53.72583,-120 120,-120 66.27417,0 120,53.72583 120,120 z"
       transform="translate(0,452.36218)" />
    <path
       sodipodi:type="arc"
       style="fill:none;stroke:#5f5f5f;stroke-width:2;stroke-linejoin:round;stroke-miterlimit:4;stroke-opacity:1;stroke-dasharray:none;stroke-dashoffset:0"
       id="path2993"
       sodipodi:cx="280"
       sodipodi:cy="290"
       sodipodi:rx="90"
       sodipodi:ry="90"
       d="m 370,290 c 0,49.70563 -40.29437,90 -90,90 -49.70563,0 -90,-40.29437 -90,-90 0,-49.70563 40.29437,-90 90,-90 49.70563,0 90,40.29437 90,90 z"
       transform="translate(0,452.36218)" />
    <path
       sodipodi:nodetypes="cc"
       style="fill:none;stroke:#108c00;stroke-width:2;stroke-linejoin:round;stroke-miterlimit:4;stroke-opacity:1;stroke-dasharray:none;stroke-dashoffset:0;marker-end:url(#Arrow2Sendy)"
       d="M 280,290 C 280,290 230,170 50,150"
       id="path5694"
       inkscape:connector-curvature="0"
       transform="translate(0,452.36218)" />
    <path
       style="fill:none;stroke:#108c00;stroke-width:2;stroke-linejoin:round;stroke-miterlimit:4;stroke-opacity:1;stroke-dasharray:4, 2;stroke-dashoffset:0;marker-end:url(#Arrow2Sendp)"
       d="M 280,290 C 280,290 240,180 60,180"
       id="path5696"
       inkscape:connector-curvature="0"
       transform="translate(0,452.36218)"
       sodipodi:nodetypes="cc" />
    <path
       transform="translate(0,452.36218)"
       inkscape:connector-curvature="0"
       id="path6204"
       d="m 280,290 c 0,0 60,-120 230,-100"
       style="fill:none;stroke:#184bff;stroke-width:2;stroke-linejoin:round;stroke-miterlimit:4;stroke-opacity:1;stroke-dasharray:none;stroke-dashoffset:0;marker-end:url(#Arrow2SendJ)"
       sodipodi:nodetypes="cc" />
    <path
       transform="translate(0,452.36218)"
       inkscape:connector-curvature="0"
       id="path6414"
       d="m 280,290 c 0,0 59.15718,-128.66486 240,-130"
       style="fill:none;stroke:#184bff;stroke-width:2;stroke-linejoin:round;stroke-miterlimit:4;stroke-opacity:1;stroke-dasharray:4, 2;stroke-dashoffset:0;marker-end:url(#Arrow2SendH)"
       sodipodi:nodetypes="cc" />
    <text
       xml:space="preserve"
       style="font-size:48.40198517px;font-style:normal;font-variant:normal;font-weight:normal;font-stretch:normal;line-height:125%;letter-spacing:0px;word-spacing:0px;fill:#108c00;fill-opacity:1;stroke:none;font-family:Helvetica;-inkscape-font-specification:Helvetica"
       x="35.366753"
       y="909.4823"
       id="text3133"
       sodipodi:linespacing="125%"
       transform="scale(1.512562,0.66112991)"><tspan
         sodipodi:role="line"
         id="tspan3135"
         x="35.366753"
         y="909.4823">-</tspan></text>
    <text
       xml:space="preserve"
       style="font-size:32px;font-style:normal;font-variant:normal;font-weight:normal;font-stretch:normal;line-height:125%;letter-spacing:0px;word-spacing:0px;fill:#194aff;fill-opacity:1;stroke:none;font-family:Helvetica;-inkscape-font-specification:Sans"
       x="501.69226"
       y="606.33667"
       id="text3141"
       sodipodi:linespacing="125%"><tspan
         sodipodi:role="line"
         id="tspan3143"
         x="501.69226"
         y="606.33667">+</tspan></text>
    <path
       sodipodi:type="arc"
       style="fill:#5f5f5f;fill-opacity:1;stroke:none"
       id="path3765"
       sodipodi:cx="280"
       sodipodi:cy="290"
       sodipodi:rx="5"
       sodipodi:ry="5"
       d="m 285,290 c 0,2.76142 -2.23858,5 -5,5 -2.76142,0 -5,-2.23858 -5,-5 0,-2.76142 2.23858,-5 5,-5 2.76142,0 5,2.23858 5,5 z"
       transform="translate(0,452.36218)" />
  </g>
</svg>
